# xmcd
#
# Track frame offsets: 
#        150
#        30626
#        60320
#        86466
#        107914
#        136849
#        159676
#        179983
#        205009
#        230586
#        276847
#        306702
#
# Disc length: 4458 seconds
#
# Revision: 0
# Processed by: cddbd v1.5.2PL0 Copyright (c) Steve Scherf et al.
# Submitted via: ExactAudioCopy v1.0b3
#
DISCID=ac11680c
DTITLE=bird - bird's nest 2013
DYEAR=2013
DGENRE=Blues
TTITLE0=マインドトラベル
TTITLE1=オアシス (Album Version)
TTITLE2=あれから
TTITLE3=童神
TTITLE4=SOULS (DJ Watarai Mix)
TTITLE5=髪をほどいて
TTITLE6=スパイダー
TTITLE7=Up And At It
TTITLE8=DA DA DA DA
TTITLE9=GAME (LIVE!tour 2000+1)
TTITLE10=パレード
TTITLE11=9月の想い
EXTD=
EXTT0=
EXTT1=
EXTT2=
EXTT3=
EXTT4=
EXTT5=
EXTT6=
EXTT7=
EXTT8=
EXTT9=
EXTT10=
EXTT11=
PLAYORDER=
